<svg xmlns="http://www.w3.org/2000/svg" version="1.1" xmlns:xlink="http://www.w3.org/1999/xlink" width="732" height="732"><svg width="732" height="732" viewBox="0 0 732 732" fill="none" xmlns="http://www.w3.org/2000/svg">
<path d="M366.082 280.439H139.082V224.808H366.082V280.439Z" fill="#F184D5"></path>
<path d="M280.428 139.093V366.093H224.797V139.093H280.428Z" fill="#66C7F1"></path>
<path d="M280.428 224.808V280.439H224.797V224.808H280.428Z" fill="#ACA6E3"></path>
<path d="M366 507.439H139V451.808H366V507.439Z" fill="#66C7F1"></path>
<path d="M280.346 366.093V593.093H224.715V366.093H280.346Z" fill="#F184D5"></path>
<path d="M280.346 451.808V507.439H224.715V451.808H280.346Z" fill="#ACA6E3"></path>
<path d="M593 280.346H366V224.715H593V280.346Z" fill="#66C7F1"></path>
<path d="M507.346 139V366H451.715V139H507.346Z" fill="#F184D5"></path>
<path d="M507.346 224.715V280.346H451.715V224.715H507.346Z" fill="#ACA6E3"></path>
<path d="M592.918 507.346H365.918V451.715H592.918V507.346Z" fill="#F184D5"></path>
<path d="M507.264 366V593H451.633V366H507.264Z" fill="#66C7F1"></path>
<path d="M507.264 451.715V507.346H451.633V451.715H507.264Z" fill="#ACA6E3"></path>
</svg><style>@media (prefers-color-scheme: light) { :root { filter: none; } }
@media (prefers-color-scheme: dark) { :root { filter: none; } }
</style></svg>